<svg width="801" height="686" viewBox="0 0 801 686" fill="none" xmlns="http://www.w3.org/2000/svg">
<g clip-path="url(#clip0_1_2)">
<path d="M0 664.109C0 665.186 0.588992 666.062 1.31999 666.065H799.604C800.337 666.065 800.932 665.189 800.932 664.109C800.932 663.029 800.337 662.153 799.604 662.153H1.32799C0.596988 662.153 0.002 663.02 0 664.098V664.109Z" fill="#E6E6E6"/>
<path d="M742.892 441.894L754.301 488.956C754.428 489.481 754.408 490.03 754.244 490.544L702.492 652.273C702.287 652.913 701.868 653.463 701.306 653.832C700.744 654.201 700.073 654.366 699.404 654.3C698.736 654.234 698.11 653.941 697.631 653.469C697.152 652.998 696.849 652.377 696.772 651.709L689.613 588.709C689.566 588.29 689.609 587.867 689.739 587.466L737.239 441.679C737.437 441.071 737.829 440.544 738.354 440.179C738.879 439.813 739.509 439.629 740.148 439.653C740.787 439.678 741.401 439.911 741.896 440.316C742.391 440.721 742.74 441.276 742.891 441.898L742.892 441.894Z" fill="#22212D"/>
<path d="M738.694 445.864L749.23 486.242L703.583 633.711L693.05 588.067L738.694 445.864Z" fill="#FFBE63"/>
<path d="M508.715 665.317C510.471 670.584 691.296 663.562 693.051 661.806C694.582 659.608 695.876 657.254 696.913 654.784C698.563 651.273 700.073 647.762 700.073 647.762L693.051 590.916L513.982 584.561C513.982 584.561 509.505 632.734 508.592 654.784C508.281 658.291 508.322 661.819 508.715 665.317Z" fill="#22212D"/>
<path opacity="0.1" d="M670.229 598.6L673.738 647.756H594.738V598.6H670.229Z" fill="black"/>
<path opacity="0.1" d="M568.404 614.4L568.876 614.307L566.65 635.466H522.76V614.4H568.404Z" fill="black"/>
<path opacity="0.1" d="M508.715 665.317C510.471 670.584 691.296 663.562 693.051 661.806C694.582 659.608 695.876 657.254 696.913 654.784H508.592C508.281 658.291 508.322 661.819 508.715 665.317Z" fill="black"/>
<path d="M229.577 480.984H278.733L399.868 433.584C399.868 433.584 485.892 398.472 478.868 465.184C471.844 531.896 459.557 621.431 459.557 621.431C459.557 621.431 420.934 603.875 399.867 609.142C378.8 614.409 392.841 502.047 392.841 502.047C392.841 502.047 220.794 584.559 204.994 574.026C189.194 563.493 185.683 489.758 185.683 489.758L229.577 480.984Z" fill="#090814"/>
<path d="M307.023 327.041L366.512 412.513L505.203 528.381C505.203 528.381 614.162 565.77 596.603 586.837C579.044 607.904 491.155 558.226 491.155 558.226C491.155 558.226 331.401 442.358 326.139 433.58C320.877 424.802 262.939 342.29 262.939 342.29L307.023 327.041Z" fill="#ED9DA0"/>
<path opacity="0.058" d="M307.023 327.041L366.512 412.513L505.203 528.381C505.203 528.381 619.496 571.02 601.941 592.087C584.386 613.154 491.159 558.226 491.159 558.226C491.159 558.226 331.401 442.358 326.139 433.58C320.877 424.802 262.939 342.29 262.939 342.29L307.023 327.041Z" fill="black"/>
<path d="M292.778 224.666C292.778 224.666 266.444 270.311 261.178 294.889C255.912 319.467 182.178 245.733 182.178 245.733L172.522 220.277C172.522 220.277 241.867 187.799 236.601 161.465C231.335 135.131 292.778 224.666 292.778 224.666Z" fill="#ED9DA0"/>
<path d="M298.043 233.444C341.674 233.444 377.044 198.074 377.044 154.443C377.044 110.812 341.674 75.442 298.043 75.442C254.412 75.442 219.042 110.812 219.042 154.443C219.042 198.074 254.412 233.444 298.043 233.444Z" fill="#ED9DA0"/>
<path d="M306.823 361.601L378.802 456.401L550.848 584.56C550.848 584.56 645.248 608.327 617.159 627.638C589.07 646.949 538.559 612.649 538.559 612.649C538.559 612.649 364.759 519.603 327.889 480.98C291.019 442.357 222.555 377.402 222.555 377.402L306.823 361.601Z" fill="#ED9DA0"/>
<path d="M210.266 509.07L231.333 542.427L357.063 502.872C370.683 498.47 385.097 497.078 399.308 498.792C413.519 500.507 427.188 505.287 439.37 512.802C461.315 526.627 475.36 548.572 443.759 581.05C380.559 646.006 338.424 610.895 338.424 610.895C338.424 610.895 125.999 710.962 90.886 661.806C55.773 612.65 54.019 588.072 54.019 588.072C54.019 588.072 189.199 503.804 210.266 509.07Z" fill="#22212D"/>
<path d="M473.604 624.939C473.604 624.939 529.782 661.806 463.07 679.362C396.358 696.918 347.202 672.34 347.202 672.34C347.202 672.34 289.268 672.34 289.268 642.495C289.268 612.65 308.579 609.139 308.579 609.139L368.269 617.917C368.269 617.917 440.248 598.605 473.604 624.939Z" fill="#D6D6E3"/>
<path d="M271.711 258.021L310.334 333.511C310.334 333.511 301.556 370.378 287.512 373.889C273.468 377.4 213.777 328.245 213.777 328.245L271.711 258.021Z" fill="#FFBE63"/>
<path d="M166.249 211.95C169.803 211.002 173.545 211.012 177.094 211.978C188.363 215.003 213.627 223.012 219.043 235.2C226.065 251 250.643 275.578 250.643 275.578C250.643 275.578 283.999 308.934 276.977 331.757C269.955 354.58 243.622 380.918 243.622 380.918C243.622 380.918 250.644 489.764 215.533 517.853C180.422 545.942 166.376 526.631 166.376 552.965C166.376 579.299 57.527 661.806 36.463 610.894C36.463 610.894 46.997 516.094 43.485 482.737C40.027 449.862 45.091 244.75 166.249 211.95Z" fill="#FFBE63"/>
<path d="M222.554 256.265C222.554 256.265 329.645 335.265 310.333 368.622C310.333 368.622 245.377 400.222 231.333 398.467C217.289 396.712 162.865 335.267 148.821 329.999C134.777 324.731 127.753 229.932 222.554 256.265Z" fill="#FFBE63"/>
<path d="M244.23 46.2351C249.123 44.6854 254.554 43.617 259.283 45.6091C264.013 47.6012 267.206 53.7919 264.417 58.095C279.189 45.8989 297.784 39.2959 316.94 39.4449C336.095 39.5939 354.586 46.4855 369.166 58.91C379.454 67.6792 387.9 80.5554 385.905 93.9243C385.393 97.3558 384.213 100.88 385.201 104.207C386.448 108.4 390.93 110.962 395.289 111.328L395.42 111.339C396.17 111.367 396.894 111.619 397.498 112.063C398.103 112.507 398.56 113.122 398.811 113.829C399.063 114.535 399.096 115.301 398.907 116.027C398.718 116.753 398.315 117.406 397.752 117.9L391.973 122.888C395.855 125.463 400.301 127.062 404.934 127.549C405.702 127.634 406.425 127.954 407.004 128.466C407.583 128.978 407.989 129.657 408.167 130.409C408.345 131.161 408.286 131.949 407.998 132.667C407.709 133.384 407.206 133.994 406.558 134.414C389.604 145.395 367.276 148.118 348.392 140.736C334.969 135.489 323.157 125.635 308.877 123.703C303.352 122.955 297.73 123.454 292.424 125.163C287.117 126.871 282.26 129.746 278.209 133.577C274.158 137.407 271.017 142.096 269.014 147.299C267.012 152.503 266.2 158.088 266.638 163.646C264.305 157.702 256.131 155.756 250.359 158.492C244.587 161.229 241.052 167.256 239.187 173.364C236.33 182.703 236.607 192.643 237.158 202.425C206.042 189.343 184.731 155.811 186.175 122.077C187.62 88.2024 211.907 56.4758 244.23 46.2351Z" fill="#090814"/>
</g>
<defs>
<clipPath id="clip0_1_2">
<rect width="800.932" height="685.684" fill="white"/>
</clipPath>
</defs>
</svg>
