<svg width="800" height="259" viewBox="0 0 800 259" fill="none" xmlns="http://www.w3.org/2000/svg">
<rect width="800" height="259" fill="#1E1E1E"/>
<g clip-path="url(#clip0_0_1)">
<path d="M192.913 73.669L225.058 77.269L228.258 109.469H189.161L192.913 73.669Z" fill="#ED9DA0"/>
<path d="M778.335 231.133H748.935C748.272 231.132 747.616 231.275 747.014 231.553C746.412 231.831 745.879 232.238 745.45 232.744C744.365 232.545 743.249 232.606 742.193 232.921C741.136 233.237 740.17 233.799 739.373 234.561C738.575 235.323 737.97 236.263 737.607 237.304C737.243 238.345 737.132 239.457 737.282 240.55C737.432 241.642 737.838 242.684 738.469 243.588C739.099 244.493 739.935 245.235 740.908 245.754C741.881 246.273 742.963 246.554 744.065 246.574C745.168 246.594 746.259 246.352 747.25 245.868L749.689 253.792C749.978 254.731 750.56 255.553 751.351 256.136C752.141 256.72 753.097 257.035 754.08 257.035H773.196C774.178 257.035 775.135 256.72 775.925 256.136C776.716 255.553 777.298 254.731 777.587 253.792L782.73 237.078C782.941 236.391 782.988 235.663 782.867 234.954C782.746 234.245 782.46 233.575 782.033 232.996C781.605 232.418 781.048 231.948 780.406 231.625C779.763 231.301 779.054 231.133 778.335 231.133ZM744.207 244.583C742.886 244.583 741.619 244.058 740.684 243.124C739.75 242.19 739.225 240.923 739.225 239.602C739.225 238.28 739.75 237.013 740.684 236.079C741.619 235.145 742.886 234.62 744.207 234.62C744.298 234.62 744.383 234.642 744.473 234.647C744.275 235.449 744.299 236.29 744.543 237.079L746.643 243.918C745.902 244.348 745.061 244.578 744.204 244.583H744.207Z" fill="white"/>
<path d="M62.022 210.212H32.622C31.9588 210.211 31.3034 210.354 30.7014 210.632C30.0994 210.91 29.5655 211.317 29.137 211.823C28.0525 211.624 26.9362 211.685 25.8797 212C24.8233 212.316 23.8568 212.878 23.0596 213.64C22.2624 214.402 21.6572 215.342 21.2938 216.383C20.9303 217.424 20.819 218.536 20.9688 219.629C21.1186 220.721 21.5254 221.763 22.1557 222.667C22.786 223.572 23.6219 224.314 24.5948 224.833C25.5677 225.352 26.6497 225.633 27.7522 225.653C28.8547 225.673 29.9462 225.431 30.937 224.947L34.372 253.793C34.6609 254.732 35.2433 255.554 36.0336 256.137C36.8239 256.721 37.7805 257.036 38.763 257.036H57.879C58.8615 257.036 59.8181 256.721 60.6084 256.137C61.3987 255.554 61.9811 254.732 62.27 253.793L66.417 216.157C66.6283 215.47 66.6753 214.742 66.5542 214.033C66.4331 213.324 66.1473 212.654 65.7197 212.075C65.2922 211.497 64.7349 211.027 64.0927 210.704C63.4504 210.38 62.7412 210.212 62.022 210.212ZM27.894 223.662C26.5728 223.662 25.3058 223.137 24.3716 222.203C23.4373 221.269 22.9125 220.002 22.9125 218.68C22.9125 217.359 23.4373 216.092 24.3716 215.158C25.3058 214.224 26.5728 213.699 27.894 213.699C27.985 213.699 28.07 213.721 28.16 213.726C27.962 214.528 27.9862 215.369 28.23 216.158L30.33 222.997C29.5889 223.427 28.7481 223.657 27.891 223.662H27.894Z" fill="white"/>
<path d="M409.379 186.301C409.379 184.725 408.912 183.184 408.036 181.873C407.16 180.562 405.915 179.541 404.459 178.938C403.003 178.334 401.4 178.177 399.854 178.484C398.308 178.792 396.888 179.551 395.773 180.665C394.659 181.78 393.9 183.2 393.592 184.746C393.285 186.292 393.442 187.895 394.046 189.351C394.649 190.807 395.67 192.052 396.981 192.928C398.292 193.804 399.833 194.271 401.409 194.271C401.509 194.271 401.609 194.26 401.703 194.256C403.674 200.662 404.727 207.315 404.83 214.017C404.906 217.358 404.715 220.7 404.259 224.01C403.912 226.359 403.265 229.054 400.933 230.151C399.194 230.969 400.709 233.551 402.441 232.732C405.071 231.494 406.351 228.721 406.924 226.01C407.578 222.516 407.879 218.965 407.824 215.41C407.856 208.019 406.777 200.665 404.624 193.594C406.039 192.971 407.242 191.95 408.087 190.656C408.932 189.361 409.382 187.849 409.382 186.303L409.379 186.301Z" fill="#B1FF9C"/>
<path d="M406.944 234.329C406.944 234.329 396.257 208.024 428.317 188.294L406.944 234.329Z" fill="#B1FF9C"/>
<path d="M406.371 233.85C406.371 233.85 403.111 215.101 377.879 215.262L406.371 233.85Z" fill="#B1FF9C"/>
<path d="M424.249 256.877H380.433C379.592 256.877 378.769 256.641 378.056 256.195C377.344 255.749 376.771 255.112 376.403 254.356L366.863 234.747C366.531 234.064 366.378 233.307 366.418 232.549C366.458 231.79 366.691 231.054 367.094 230.41C367.497 229.766 368.057 229.235 368.721 228.867C369.386 228.498 370.133 228.305 370.893 228.305H433.793C434.553 228.305 435.3 228.498 435.964 228.867C436.629 229.235 437.189 229.766 437.592 230.41C437.995 231.054 438.227 231.79 438.268 232.549C438.308 233.307 438.155 234.064 437.823 234.747L428.283 254.356C427.915 255.112 427.342 255.749 426.63 256.195C425.917 256.641 425.094 256.877 424.253 256.877H424.249Z" fill="#B1FF9C"/>
<path d="M799 258.033H1.00003C0.750162 258.012 0.517281 257.898 0.347549 257.713C0.177818 257.529 0.0836182 257.287 0.0836182 257.036C0.0836182 256.786 0.177818 256.544 0.347549 256.36C0.517281 256.175 0.750162 256.061 1.00003 256.04H799C799.25 256.061 799.483 256.175 799.652 256.36C799.822 256.544 799.916 256.786 799.916 257.036C799.916 257.287 799.822 257.529 799.652 257.713C799.483 257.898 799.25 258.012 799 258.033Z" fill="white"/>
<path d="M166.451 200.176L147.089 126.966L144.847 118.515L146.947 116.563L183.034 98.685L234.601 99.969L264.874 115.511L265.037 126.966L266.531 230.166L272.57 255.498H161.812L170.412 215.153L166.451 200.176Z" fill="#FFF4BD"/>
<path d="M293.827 255.502H264.961L256.992 197.958L259.078 126.966L259.366 117.308L264.876 115.508C269.029 118.542 272.462 122.455 274.93 126.967C278.471 133.131 281.413 141.967 280.681 153.84C280.681 153.84 281.335 167.864 280.712 177.203C280.285 183.584 287.736 223.921 293.827 255.502Z" fill="#FFF4BD"/>
<path d="M166.552 199.444L166.452 200.176L158.794 255.502H125.6C128.262 224.154 131.39 184.962 130.97 178.681C130.348 169.35 131.001 155.318 131.001 155.318C130.207 142.454 133.733 133.177 137.647 126.966C139.617 123.809 142.043 120.961 144.847 118.514C145.469 117.968 146.124 117.461 146.808 116.996L152.318 118.786L153.758 126.965L166.552 199.444Z" fill="#FFF4BD"/>
<path d="M170.378 50.576C170.378 57.6457 172.474 64.5566 176.402 70.4348C180.33 76.3131 185.912 80.8946 192.444 83.6001C198.976 86.3055 206.163 87.0134 213.096 85.6341C220.03 84.2549 226.4 80.8505 231.399 75.8515C236.398 70.8525 239.802 64.4833 241.181 57.5495C242.56 50.6156 241.853 43.4285 239.147 36.897C236.442 30.3654 231.86 24.7828 225.982 20.8551C220.104 16.9274 213.193 14.831 206.123 14.831C201.441 14.8193 196.802 15.73 192.471 17.5111C188.141 19.2921 184.204 21.9087 180.884 25.2114C177.565 28.5141 174.929 32.4383 173.126 36.7598C171.323 41.0813 170.39 45.7156 170.378 50.398C170.378 50.4573 170.378 50.5166 170.378 50.576Z" fill="#ED9DA0"/>
<path d="M320.299 249.801C320.299 251.841 319.488 253.798 318.046 255.241C316.603 256.684 314.646 257.494 312.606 257.494H106.821C104.781 257.494 102.824 256.684 101.381 255.241C99.9385 253.798 99.128 251.841 99.128 249.801C99.128 247.761 99.9385 245.804 101.381 244.361C102.824 242.918 104.781 242.108 106.821 242.108H109.105C108.975 241.649 108.908 241.176 108.905 240.699V135.64C108.905 133.868 109.609 132.169 110.862 130.916C112.115 129.663 113.814 128.959 115.586 128.959H303.843C305.615 128.959 307.314 129.663 308.567 130.916C309.82 132.169 310.524 133.868 310.524 135.64V240.7C310.525 241.177 310.458 241.651 310.324 242.109H312.608C314.648 242.11 316.604 242.92 318.046 244.363C319.488 245.805 320.299 247.761 320.299 249.801Z" fill="#090814"/>
<path d="M213.699 188.963C211.347 188.963 209.048 188.266 207.092 186.959C205.137 185.652 203.612 183.795 202.712 181.622C201.812 179.449 201.577 177.058 202.036 174.751C202.494 172.444 203.627 170.325 205.29 168.662C206.953 166.999 209.072 165.866 211.379 165.407C213.686 164.949 216.077 165.184 218.25 166.084C220.423 166.984 222.28 168.509 223.587 170.464C224.894 172.42 225.591 174.719 225.591 177.071C225.591 180.225 224.338 183.25 222.108 185.48C219.878 187.71 216.853 188.963 213.699 188.963ZM213.699 167.172C211.741 167.172 209.827 167.753 208.199 168.84C206.571 169.928 205.302 171.474 204.553 173.283C203.803 175.092 203.607 177.083 203.989 179.003C204.371 180.924 205.314 182.688 206.699 184.072C208.083 185.457 209.847 186.4 211.768 186.782C213.688 187.164 215.679 186.968 217.488 186.218C219.297 185.469 220.843 184.2 221.931 182.572C223.018 180.944 223.599 179.03 223.599 177.072C223.599 174.446 222.556 171.928 220.699 170.072C218.843 168.215 216.325 167.172 213.699 167.172Z" fill="#FEFEFE"/>
<path d="M213.699 187.966C219.716 187.966 224.594 183.088 224.594 177.071C224.594 171.054 219.716 166.176 213.699 166.176C207.682 166.176 202.804 171.054 202.804 177.071C202.804 183.088 207.682 187.966 213.699 187.966Z" fill="#FEFEFE"/>
<path d="M543.96 81.376V60.276C544.018 47.6311 549.082 35.5238 558.043 26.6029C567.005 17.682 579.135 12.6737 591.78 12.6737C604.425 12.6737 616.556 17.682 625.518 26.6029C634.479 35.5238 639.543 47.6311 639.601 60.276V81.376C639.597 84.2333 638.46 86.9725 636.44 88.9928C634.42 91.0131 631.68 92.1496 628.823 92.153H564.184L558.903 80.932V92.153H554.737C551.88 92.1493 549.141 91.0127 547.121 88.9924C545.1 86.9721 543.964 84.2331 543.96 81.376Z" fill="#090814"/>
<path d="M579.941 80.697H605.52L609.009 113.305H575.726L579.941 80.697Z" fill="#ED9DA0"/>
<path d="M626.657 148.918L628.717 171.237L629.653 181.378L631.15 197.525L631.339 199.608L632.554 212.722L632.584 212.865C633.35 215.318 634.887 217.459 636.967 218.969C639.047 220.48 641.558 221.279 644.128 221.248L699.601 220.29L715.257 220.018C715.557 220.471 715.857 220.878 716.147 221.24C717.522 222.91 719.233 224.272 721.168 225.238C723.104 226.203 725.221 226.751 727.382 226.846C729.554 226.946 731.722 226.581 733.741 225.775C735.761 224.97 737.585 223.742 739.092 222.175C739.392 221.866 739.692 221.541 739.96 221.202C742.011 218.679 743.213 215.572 743.392 212.325C743.572 209.078 742.721 205.858 740.96 203.124C739.787 201.294 738.236 199.736 736.412 198.554C734.588 197.373 732.532 196.595 730.382 196.273C728.246 195.946 726.064 196.072 723.98 196.642C721.895 197.213 719.954 198.216 718.282 199.586C717.751 200.023 717.255 200.5 716.796 201.012L699.608 198.507L656.321 192.207L654.473 167.232C654.465 167.119 654.458 167.006 654.45 166.885L652.956 146.732C652.706 143.379 651.185 140.247 648.704 137.977C646.224 135.707 642.97 134.469 639.608 134.516C638.501 134.527 637.4 134.682 636.333 134.976C635.136 135.3 633.991 135.793 632.933 136.44C630.823 137.723 629.116 139.573 628.007 141.78C626.898 143.987 626.432 146.461 626.663 148.92L626.657 148.918Z" fill="#ED9DA0"/>
<path d="M593.716 93.312C611.032 93.312 625.07 79.2743 625.07 61.958C625.07 44.6417 611.032 30.604 593.716 30.604C576.4 30.604 562.362 44.6417 562.362 61.958C562.362 79.2743 576.4 93.312 593.716 93.312Z" fill="#ED9DA0"/>
<path d="M635.522 114.215L641.222 112.315C641.222 112.315 652.622 117.066 652.622 125.615C652.622 134.164 654.522 168.371 654.522 168.371L628.869 171.221L635.522 114.215Z" fill="#FFF4BD"/>
<path d="M514.24 256.498H536.846L544.58 191.692L547.38 168.287L547.765 165.058L549.833 147.734C549.944 145.559 549.459 143.394 548.429 141.474C547.4 139.555 545.865 137.953 543.992 136.842C542.118 135.731 539.976 135.154 537.798 135.172C535.62 135.19 533.488 135.802 531.633 136.944C531.166 137.232 530.719 137.552 530.297 137.902C528.999 138.969 527.943 140.298 527.196 141.803C526.45 143.308 526.03 144.954 525.966 146.632L523.929 165.684L514.24 256.498Z" fill="#9E616A"/>
<path d="M548.141 168.371L522.488 165.521C522.488 165.521 524.388 131.321 524.388 122.765C524.388 114.209 535.788 109.465 535.788 109.465L541.488 111.365L548.141 168.371Z" fill="#FFF4BD"/>
<path d="M539.826 256.498H647.067C643.669 243.511 639.033 230.88 633.222 218.779C632.279 216.855 631.722 215.829 631.722 215.829C631.722 215.829 586.122 214.929 557.613 226.329C555.795 227.114 554.164 228.276 552.829 229.739C547.892 234.844 543.576 244.419 539.826 256.498Z" fill="#2F2E41"/>
<path d="M562.361 103.763C562.361 103.763 561.461 103.277 615.561 105.248L638.207 111.485L641.217 112.314C641.217 112.314 638.367 169.322 630.766 179.773C623.165 190.224 625.066 195.925 626.966 196.873C628.866 197.821 633.617 195.923 630.766 200.673C627.915 205.423 624.115 202.573 627.916 205.424C631.717 208.275 633.616 218.724 633.616 218.724L550.005 230.124C550.005 230.124 547.155 193.069 539.554 174.067C531.953 155.065 530.054 147.467 530.054 147.467L535.754 109.467L562.361 103.763Z" fill="#FFF4BD"/>
<path d="M559.9 44.334C559.9 36.1431 563.154 28.2876 568.946 22.4957C574.738 16.7039 582.593 13.45 590.784 13.45C598.975 13.45 606.83 16.7039 612.622 22.4957C618.414 28.2876 621.668 36.1431 621.668 44.334V58.282H559.9V44.334Z" fill="#090814"/>
<path d="M695.895 248.659V251.413C695.894 253.025 695.254 254.572 694.114 255.712C692.974 256.852 691.427 257.493 689.815 257.494H487.544C485.931 257.494 484.385 256.853 483.244 255.713C482.104 254.573 481.463 253.027 481.462 251.414V248.659C481.462 247.046 482.103 245.5 483.243 244.36C484.383 243.219 485.929 242.579 487.542 242.578H491.135C491.007 242.134 490.94 241.674 490.935 241.212V137.978C490.935 136.625 491.472 135.328 492.429 134.372C493.385 133.415 494.682 132.878 496.035 132.878H681.314C682.667 132.878 683.964 133.415 684.92 134.372C685.877 135.328 686.414 136.625 686.414 137.978V241.212C686.413 241.675 686.346 242.135 686.214 242.578H689.805C691.418 242.578 692.964 243.219 694.104 244.359C695.245 245.499 695.885 247.045 695.886 248.658L695.895 248.659Z" fill="#090814"/>
<path d="M592.662 191.204C590.376 191.204 588.141 190.526 586.24 189.256C584.339 187.986 582.857 186.18 581.982 184.068C581.107 181.955 580.878 179.631 581.324 177.389C581.77 175.146 582.871 173.087 584.488 171.47C586.105 169.853 588.164 168.752 590.407 168.306C592.649 167.86 594.974 168.089 597.086 168.964C599.198 169.839 601.004 171.321 602.274 173.222C603.544 175.123 604.222 177.358 604.222 179.644C604.222 182.71 603.004 185.65 600.836 187.818C598.668 189.986 595.728 191.204 592.662 191.204ZM592.662 170.077C590.77 170.077 588.92 170.638 587.347 171.689C585.774 172.741 584.547 174.235 583.823 175.983C583.099 177.731 582.91 179.655 583.279 181.51C583.648 183.366 584.559 185.071 585.897 186.409C587.235 187.747 588.94 188.658 590.796 189.027C592.651 189.396 594.575 189.207 596.323 188.483C598.071 187.759 599.565 186.532 600.617 184.959C601.668 183.386 602.229 181.536 602.229 179.644C602.229 178.388 601.982 177.144 601.501 175.983C601.02 174.822 600.315 173.767 599.427 172.879C598.539 171.991 597.484 171.286 596.323 170.805C595.162 170.324 593.918 170.077 592.662 170.077Z" fill="#FEFEFE"/>
<path d="M592.805 190.207C598.639 190.207 603.368 185.478 603.368 179.644C603.368 173.81 598.639 169.081 592.805 169.081C586.971 169.081 582.242 173.81 582.242 179.644C582.242 185.478 586.971 190.207 592.805 190.207Z" fill="#FEFEFE"/>
<path d="M246.614 20.884C243.732 18.6591 241.39 15.8128 239.761 12.557C239.179 11.3194 238.377 10.1981 237.394 9.24798L234.766 7.24798C224.187 0.852977 203.529 4.24798 203.529 4.24798C182.039 -7.19502 174.148 7.089 171.397 16.148C170.307 19.4263 168.386 22.3657 165.82 24.679C160.52 29.734 168.867 39.565 168.867 39.565V40.26L170.86 53.793C170.86 53.793 172.853 44.827 178.111 38.526C181.426 34.553 186.822 32.192 189.328 32.24C221.67 32.871 227.793 34.152 227.793 34.152C227.793 34.152 233.269 37.094 235.687 38.329C243.501 42.322 241.596 56.781 241.596 56.781L247.435 31.118C248.785 24.9 248.033 22.049 246.614 20.884Z" fill="#090814"/>
</g>
<defs>
<clipPath id="clip0_0_1">
<rect width="800" height="258.032" fill="white"/>
</clipPath>
</defs>
</svg>
