<svg width="814" height="683" viewBox="0 0 814 683" fill="none" xmlns="http://www.w3.org/2000/svg">
<path d="M174.457 147.416C174.46 135.154 177.863 123.132 184.288 112.686C190.713 102.24 199.909 93.7778 210.855 88.2397C221.801 82.7015 234.068 80.3038 246.295 81.3128C258.522 82.3219 270.23 86.6981 280.119 93.9557C290.007 101.213 297.69 111.068 302.314 122.426C306.938 133.784 308.322 146.201 306.312 158.297C304.303 170.394 298.978 181.697 290.93 190.952C282.881 200.207 272.424 207.051 260.719 210.724L250.82 218.694L268.586 280.844L247.887 295.482L182.473 240.999C182.473 240.999 196.604 223.009 204.183 202.72C195.04 196.676 187.539 188.46 182.351 178.808C177.163 169.156 174.451 158.369 174.456 147.413L174.457 147.416Z" fill="#ED9DA0"/>
<path d="M470.985 317.393L423.429 482.566L375.332 449.205L432.005 305.095C427.062 295.946 425.834 283.922 429.588 272.035C436.157 251.238 455.442 238.783 472.662 244.216C489.882 249.649 498.518 270.913 491.949 291.71C488.195 303.597 480.281 312.737 470.98 317.396L470.985 317.393Z" fill="#ED9DA0"/>
<path d="M312.274 382.613H140.73V582.308H312.274V382.613Z" fill="#ED9DA0"/>
<path d="M130.199 507.339L91.2885 625.514L88.9706 682.019H376.665L321.18 507.339H130.199Z" fill="#090814"/>
<path d="M198.309 223.373L157.53 316.451L161.565 476.421H299.393L303.72 306.682L252.551 227.852L198.309 223.373Z" fill="#FF6363"/>
<path d="M116.384 260.412C116.384 260.412 104.446 602.692 72.3864 659.176C72.3864 659.176 116.684 666.892 127.954 650.934C139.223 634.976 182.678 528.731 183.151 505.202C183.624 481.673 197.236 223.259 197.236 223.259L116.382 260.412H116.384Z" fill="#E6E6E6"/>
<path d="M248.951 237.259L252.551 227.853L343.953 264.133C343.953 264.133 339.688 606.19 376.69 640.757C376.69 640.757 314.874 637.809 312.821 636.394C310.768 634.979 265.889 458.101 265.889 458.101C265.889 458.101 287.283 376.161 288.934 341.174C290.585 306.186 248.95 237.262 248.95 237.262L248.951 237.259Z" fill="#E6E6E6"/>
<path d="M320.761 270.819L343.953 264.132L397.279 372.071L420.133 312.949L476.596 329.077C476.596 329.077 450.931 495.547 412.13 486.59C373.329 477.633 320.759 386.218 320.759 386.218V270.819H320.761Z" fill="#E6E6E6"/>
<path d="M92.1445 600.454L14.3183 487.369L50.0975 455.907L123.233 578.984C132.718 580.565 142.199 586.488 148.754 595.968C160.221 612.558 158.384 633.691 144.654 643.176C130.924 652.662 110.482 646.906 99.0141 630.319C92.4604 620.84 90.2706 609.882 92.1445 600.454Z" fill="#ED9DA0"/>
<path d="M130.199 269.954L116.384 260.411L3.37982 473.75C3.37982 473.75 -5.79273 486.615 6.17168 507.342C18.1361 528.069 79.5601 591.544 79.5601 591.544L127.958 564.222L78.6601 472.404L125.124 392.074L130.195 269.955L130.199 269.954Z" fill="#E6E6E6"/>
<path d="M270.797 58.2355C285.64 63.4486 294.133 66.431 301.913 73.9268C315.054 86.5807 317.223 103.49 319.237 119.202C320.814 131.495 322.853 147.386 315.637 165.544C313.18 171.74 303.901 203.538 281.084 207.027C276.603 207.712 266.085 207.891 269.115 205.653C297.18 184.945 306.513 168.251 305.532 136.334C304.921 116.501 274.603 95.09 256.601 91.2421C252.277 90.3591 247.812 90.42 243.513 91.4204C239.214 92.4209 235.181 94.3374 231.692 97.0389C216.561 109.454 217.205 160.793 201.25 171.524C194.688 175.939 199.059 144.869 194.437 149.907C185.316 159.848 191.166 175.061 192.807 180.869C200.582 208.372 208.728 188.033 216.314 211.518C220.398 224.144 184.375 237.263 165.365 240.842C146.623 244.371 138.544 254.586 148.392 246.405C121.899 235.292 176.99 199.804 179.465 189.745C183.004 175.371 168.31 169.243 165.366 146.569C163.353 131.064 161.938 108.89 167.42 94.6732C172.592 81.2497 177.083 69.5992 188.835 59.0341C191.664 56.5005 214.447 39.2521 238.607 38.7634C249.73 38.5405 257.906 53.6961 270.798 58.2265L270.797 58.2355Z" fill="#090814"/>
<path d="M459.634 255.94C459.508 255.94 459.382 255.94 459.254 255.931C457.686 255.811 456.177 255.285 454.874 254.404C453.571 253.524 452.521 252.319 451.826 250.909C445.976 240.425 438.568 230.888 429.856 222.625C424.7 217.728 419.312 213.171 414.102 208.766C400.66 197.405 388.003 186.705 380.974 171.92C365.654 139.681 383.696 94.7782 409.473 74.6404C438.383 52.053 476.41 48.5119 513.197 48.0482C517.02 48.0002 520.845 47.9763 524.673 47.9763C591.124 48.0248 657.376 55.2256 722.284 69.4543C743.96 74.2076 766.65 80.0314 784.881 94.1645C803.006 108.214 814.023 130.337 812.948 150.533C811.379 180.01 785.091 202.035 761.151 207.793C738.335 213.277 714.633 209.571 689.54 205.646C684 204.781 678.273 203.884 672.609 203.106C611.052 194.648 495.418 220.717 490.518 221.83L485.664 222.935L466.837 251.743C466.091 252.995 465.039 254.038 463.78 254.773C462.521 255.509 461.095 255.913 459.637 255.948L459.634 255.94Z" fill="#FF6363"/>
<path d="M381.593 23.9072C381.34 23.9846 381.066 23.9582 380.832 23.8338C380.597 23.7093 380.422 23.497 380.345 23.2435L378.696 17.8556C378.619 17.6021 378.645 17.3282 378.77 17.0942C378.894 16.8602 379.106 16.6852 379.36 16.6077C379.614 16.5302 379.888 16.5567 380.122 16.6811C380.356 16.8056 380.531 17.0179 380.608 17.2714L382.257 22.6593C382.334 22.9128 382.308 23.1867 382.184 23.4207C382.059 23.6547 381.847 23.8297 381.593 23.9072Z" fill="#090814"/>
<path d="M377.694 11.1637C378.173 11.0187 378.681 10.9986 379.17 11.1055C379.659 11.2123 380.112 11.4424 380.487 11.774L392.2 22.3519L392.212 22.363C392.585 22.7095 392.86 23.1476 393.011 23.6337C393.162 24.1197 393.182 24.6367 393.071 25.1331C392.96 25.6296 392.72 26.0882 392.376 26.4633C392.032 26.8384 391.596 27.1169 391.111 27.271L375.586 32.0141C375.098 32.1573 374.581 32.1703 374.086 32.0517C373.591 31.9331 373.136 31.6871 372.766 31.3381C372.396 30.9892 372.123 30.5495 371.976 30.0627C371.829 29.576 371.811 29.0591 371.926 28.5637L371.929 28.548L375.712 13.2661L375.721 13.2299C375.846 12.7457 376.093 12.3016 376.438 11.9399C376.784 11.5782 377.216 11.311 377.694 11.1637ZM379.153 13.2663C379.037 13.1635 378.897 13.0918 378.746 13.058C378.594 13.0242 378.437 13.0295 378.288 13.0732C378.14 13.117 378.005 13.1978 377.896 13.3081C377.787 13.4184 377.708 13.5546 377.666 13.7038L377.662 13.7208L373.872 29.0164C373.837 29.1715 373.842 29.3332 373.889 29.4854C373.935 29.6376 374.02 29.7752 374.136 29.8843C374.252 29.9935 374.394 30.0706 374.549 30.1079C374.704 30.1452 374.865 30.1415 375.018 30.0971L390.508 25.3648C390.659 25.316 390.795 25.2288 390.902 25.1118C391.008 24.9947 391.083 24.8519 391.118 24.6973C391.153 24.5427 391.147 24.3816 391.101 24.2299C391.055 24.0783 390.97 23.9412 390.855 23.8322L379.153 13.2663Z" fill="#090814"/>
<path d="M382.48 26.7716L382.47 26.7745C382.217 26.852 381.943 26.8256 381.708 26.7011C381.474 26.5766 381.299 26.3643 381.222 26.1107C381.144 25.8572 381.17 25.5833 381.295 25.3493C381.419 25.1152 381.632 24.9402 381.885 24.8628L381.895 24.8598C382.148 24.7824 382.422 24.8088 382.657 24.9333C382.891 25.0577 383.066 25.2701 383.143 25.5236C383.221 25.7771 383.195 26.051 383.07 26.2851C382.946 26.5191 382.733 26.6941 382.48 26.7716Z" fill="#090814"/>
<path d="M648.715 23.5867C648.389 23.4133 648.145 23.1176 648.036 22.7645C647.928 22.4113 647.965 22.0297 648.138 21.7035L651.826 14.7715C652.005 14.4556 652.301 14.222 652.649 14.1205C652.998 14.019 653.373 14.0575 653.693 14.2279C654.014 14.3983 654.255 14.6871 654.366 15.0328C654.477 15.3785 654.448 15.7538 654.286 16.0788L650.598 23.0108C650.425 23.3366 650.129 23.5803 649.776 23.6882C649.422 23.7962 649.041 23.7597 648.715 23.5867Z" fill="#090814"/>
<path d="M657.438 7.18984C658.053 7.51924 658.573 8.00049 658.948 8.58771C659.324 9.17494 659.543 9.84857 659.584 10.5444L659.581 10.5497L660.699 32.4994L660.701 32.5227C660.724 33.2301 660.562 33.9313 660.231 34.5569C659.9 35.1825 659.411 35.7107 658.812 36.0891C658.214 36.4675 657.527 36.6829 656.819 36.714C656.112 36.745 655.409 36.5907 654.779 36.2662L634.804 25.6516C634.182 25.3119 633.66 24.8154 633.289 24.2114C632.919 23.6074 632.713 22.9169 632.693 22.2086C632.672 21.5004 632.837 20.799 633.172 20.1743C633.506 19.5495 633.999 19.0232 634.6 18.6476L634.619 18.636L653.41 7.31443L653.453 7.28779C654.054 6.9325 654.736 6.73695 655.433 6.7198C656.131 6.70265 656.821 6.86448 657.438 7.18984ZM656.802 10.701C656.79 10.4853 656.722 10.2764 656.606 10.094C656.491 9.91159 656.33 9.76161 656.141 9.65819C655.951 9.55477 655.738 9.5013 655.522 9.50283C655.306 9.50435 655.094 9.56082 654.905 9.6669L654.885 9.67981L636.067 21.0168C635.881 21.1355 635.729 21.3005 635.626 21.4955C635.523 21.6906 635.473 21.9091 635.48 22.1295C635.486 22.35 635.55 22.5649 635.665 22.7531C635.78 22.9414 635.942 23.0966 636.135 23.2036L656.066 33.7947C656.263 33.8948 656.482 33.9421 656.702 33.932C656.923 33.9219 657.137 33.8547 657.324 33.7371C657.51 33.6194 657.663 33.4554 657.767 33.2609C657.871 33.0664 657.923 32.8483 657.918 32.6278L656.802 10.701Z" fill="#090814"/>
<path d="M646.764 27.2827L646.752 27.2762C646.436 27.0972 646.202 26.8021 646.101 26.4535C646 26.1049 646.038 25.7305 646.209 25.4099C646.379 25.0893 646.668 24.8479 647.014 24.7371C647.36 24.6262 647.736 24.6547 648.061 24.8165L648.073 24.823C648.389 25.002 648.623 25.2971 648.724 25.6457C648.826 25.9943 648.787 26.3687 648.616 26.6893C648.446 27.0099 648.157 27.2513 647.811 27.3621C647.465 27.473 647.09 27.4445 646.764 27.2827Z" fill="#090814"/>
<path d="M672.204 257.658C671.925 257.692 671.643 257.614 671.421 257.441C671.199 257.267 671.054 257.013 671.02 256.733L670.29 250.79C670.255 250.51 670.333 250.228 670.507 250.006C670.68 249.784 670.935 249.64 671.215 249.606C671.494 249.572 671.776 249.65 671.998 249.823C672.221 249.997 672.365 250.251 672.399 250.531L673.13 256.474C673.164 256.754 673.086 257.036 672.912 257.258C672.739 257.48 672.484 257.624 672.204 257.658Z" fill="#090814"/>
<path d="M670.476 243.599C671.005 243.536 671.54 243.61 672.033 243.812C672.525 244.015 672.957 244.34 673.287 244.757L683.596 257.987L683.607 258.001C683.931 258.433 684.137 258.942 684.203 259.478C684.27 260.014 684.196 260.558 683.987 261.056C683.779 261.554 683.444 261.989 683.016 262.318C682.587 262.647 682.081 262.858 681.545 262.931L664.418 265.031C663.881 265.09 663.338 265.008 662.842 264.792C662.347 264.577 661.916 264.235 661.593 263.802C661.27 263.369 661.066 262.859 661.001 262.322C660.937 261.786 661.013 261.242 661.224 260.744L661.231 260.728L668.014 245.437L668.03 245.401C668.25 244.917 668.59 244.497 669.018 244.182C669.447 243.866 669.949 243.666 670.476 243.599ZM671.616 246.07C671.514 245.941 671.38 245.84 671.228 245.777C671.076 245.713 670.91 245.69 670.746 245.708C670.583 245.727 670.426 245.786 670.292 245.882C670.158 245.977 670.05 246.105 669.979 246.254L669.972 246.271L663.178 261.581C663.114 261.737 663.091 261.906 663.111 262.074C663.132 262.241 663.196 262.4 663.297 262.535C663.398 262.67 663.532 262.776 663.687 262.844C663.841 262.911 664.01 262.937 664.178 262.92L681.265 260.824C681.432 260.801 681.59 260.734 681.723 260.632C681.856 260.529 681.961 260.393 682.026 260.238C682.091 260.083 682.115 259.913 682.094 259.746C682.074 259.579 682.011 259.42 681.911 259.285L671.616 246.07Z" fill="#090814"/>
<path d="M672.604 260.82L672.593 260.822C672.313 260.856 672.031 260.778 671.809 260.604C671.587 260.431 671.443 260.176 671.408 259.896C671.374 259.617 671.452 259.335 671.626 259.113C671.799 258.891 672.054 258.747 672.334 258.712L672.345 258.711C672.624 258.677 672.906 258.755 673.128 258.928C673.351 259.102 673.495 259.357 673.529 259.636C673.563 259.916 673.485 260.198 673.312 260.42C673.138 260.642 672.884 260.786 672.604 260.82Z" fill="#090814"/>
<path d="M600.314 139.286C599.875 139.286 599.44 139.2 599.034 139.032C598.628 138.864 598.259 138.617 597.948 138.307C597.638 137.996 597.391 137.627 597.223 137.221C597.055 136.815 596.968 136.38 596.969 135.941V117.089C596.969 116.202 597.321 115.351 597.949 114.724C598.576 114.096 599.427 113.744 600.315 113.744C601.202 113.744 602.054 114.096 602.681 114.724C603.309 115.351 603.661 116.202 603.661 117.089V135.941C603.661 136.381 603.575 136.816 603.407 137.222C603.239 137.627 602.992 137.996 602.681 138.307C602.371 138.618 602.002 138.864 601.595 139.032C601.189 139.2 600.754 139.286 600.314 139.286Z" fill="white"/>
<path d="M600.315 94.6962C601.991 94.7017 603.638 95.1363 605.098 95.9586C606.558 96.781 607.782 97.9636 608.655 99.3936L608.664 99.4086L635.789 144.683L635.817 144.731C636.667 146.205 637.116 147.875 637.121 149.576C637.125 151.276 636.684 152.949 635.841 154.426C634.998 155.904 633.784 157.136 632.317 157.998C630.851 158.861 629.184 159.326 627.482 159.345H573.15C571.446 159.327 569.777 158.864 568.309 158.001C566.84 157.137 565.623 155.905 564.78 154.425C563.936 152.946 563.495 151.271 563.501 149.569C563.506 147.866 563.958 146.194 564.811 144.72L564.838 144.674L591.91 99.4985C591.93 99.4626 591.951 99.4269 591.972 99.3916C592.845 97.9614 594.071 96.7788 595.531 95.9568C596.992 95.1348 598.639 94.7008 600.315 94.6962ZM602.927 102.852C602.657 102.409 602.279 102.042 601.827 101.786C601.376 101.529 600.867 101.392 600.348 101.386C599.829 101.381 599.317 101.507 598.861 101.754C598.404 102.001 598.018 102.36 597.739 102.797L597.709 102.848L570.6 148.084C570.338 148.546 570.2 149.067 570.201 149.598C570.202 150.129 570.341 150.65 570.604 151.11C570.867 151.571 571.246 151.955 571.703 152.226C572.16 152.496 572.679 152.642 573.21 152.651H627.421C627.951 152.642 628.47 152.495 628.926 152.225C629.383 151.955 629.761 151.571 630.024 151.111C630.287 150.651 630.426 150.13 630.427 149.6C630.428 149.07 630.291 148.549 630.03 148.087L602.927 102.852Z" fill="white"/>
<path d="M600.348 149.32H600.315C599.428 149.32 598.577 148.967 597.949 148.34C597.322 147.713 596.969 146.862 596.969 145.975C596.969 145.088 597.322 144.237 597.949 143.61C598.577 142.983 599.428 142.63 600.315 142.63H600.348C601.236 142.63 602.087 142.983 602.715 143.61C603.342 144.237 603.695 145.088 603.695 145.975C603.695 146.862 603.342 147.713 602.715 148.34C602.087 148.967 601.236 149.32 600.348 149.32Z" fill="white"/>
</svg>
